<svg viewBox="0 0 34 23">
  <path
    d="M32.266 11.282C32.266 14.103 32.266 20.94 32.266 20.94C32.266 21.57 31.824 22.08 31.195 22.08C30.566 22.08 30.056 21.57 30.056 20.94C30.056 20.94 30.056 1.94999 30.056 0.0329895C32.626 -0.11201 35.594 9.32901 32.266 11.282ZM16.962 22.717C10.689 22.717 5.605 17.633 5.605 11.359C5.605 5.08601 10.689 0 16.962 0C23.234 0 28.321 5.08601 28.321 11.359C28.321 17.633 23.234 22.717 16.962 22.717ZM16.962 2.53101C12.088 2.53101 8.136 6.48301 8.136 11.359C8.136 16.233 12.088 20.185 16.962 20.185C21.838 20.185 25.788 16.233 25.788 11.359C25.788 6.48301 21.838 2.53101 16.962 2.53101ZM16.961 17.142C13.767 17.142 11.179 14.552 11.179 11.361C11.179 8.16599 13.768 5.57901 16.961 5.57901C20.155 5.57901 22.743 8.16599 22.743 11.361C22.743 14.552 20.155 17.142 16.961 17.142ZM3.702 20.939C3.702 21.569 3.26 22.078 2.631 22.078C2.002 22.078 1.491 21.569 1.491 20.939V8.11401C0.608 7.57101 0 6.43699 0 5.11899V0.0509949L1.33 5.11899L1.806 0.0509949L2.658 5.11899L3.496 0.0100098L3.918 5.11899L5.246 0.0509949V5.11899C5.246 6.46199 4.612 7.617 3.702 8.146V20.939Z" />
</svg>
