<svg viewBox="0 0 26 26">
  <path
    d="M24.03 25.987H1.912C0.856 25.987 0 25.131 0 24.074V1.91299C0 0.855994 0.856 0 1.912 0H24.03C25.086 0 25.942 0.855994 25.942 1.91299V24.074C25.942 25.131 25.086 25.987 24.03 25.987ZM24.03 2.19199C24.03 2.03799 23.905 1.91299 23.751 1.91299H2.191C2.037 1.91299 1.912 2.03799 1.912 2.19199V23.795C1.912 23.949 2.037 24.074 2.191 24.074H23.751C23.905 24.074 24.03 23.949 24.03 23.795V2.19199ZM18.293 20.706C18.188 20.706 18.09 20.65 18.037 20.559L14.507 14.457C14.455 14.367 14.455 14.257 14.507 14.167C14.559 14.078 14.657 14.022 14.763 14.022H21.823C21.927 14.022 22.025 14.078 22.078 14.167C22.131 14.257 22.131 14.367 22.078 14.457L18.549 20.559C18.495 20.65 18.397 20.706 18.293 20.706ZM14.763 12.09C14.658 12.09 14.56 12.034 14.507 11.946C14.455 11.856 14.455 11.745 14.507 11.655L18.037 5.55399C18.09 5.46199 18.188 5.40601 18.293 5.40601C18.397 5.40601 18.495 5.46199 18.549 5.55399L22.078 11.655C22.131 11.745 22.131 11.856 22.078 11.946C22.026 12.034 21.928 12.09 21.823 12.09H14.763ZM10.643 16.403L10.248 21.311C10.188 22.049 9.572 22.618 8.831 22.618H7.687C6.948 22.618 6.332 22.052 6.271 21.315L5.862 16.403C4.806 16.403 3.95 15.545 3.95 14.49V11.144C3.95 10.087 4.806 9.23099 5.862 9.23099H6.579L8.252 12.291L9.926 9.23099H10.643C11.699 9.23099 12.555 10.087 12.555 11.144V14.49C12.555 15.545 11.699 16.403 10.643 16.403ZM8.252 8.27499C6.932 8.27499 5.862 7.205 5.862 5.884C5.862 4.564 6.932 3.49399 8.252 3.49399C9.573 3.49399 10.643 4.564 10.643 5.884C10.643 7.205 9.573 8.27499 8.252 8.27499Z" />
</svg>
