<svg viewBox="0 0 16 13" >
<path d="M15.527 0.24C14.894 0.616 14.193 0.888 13.447 1.035C12.849 0.398 11.998 0 11.055 0C9.246 0 7.779 1.467 7.779 3.276C7.779 3.533 7.808 3.783 7.864 4.023C5.142 3.886 2.728 2.582 1.112 0.599999C0.83 1.084 0.668 1.647 0.668 2.247C0.668 3.383 1.247 4.386 2.126 4.974C1.589 4.957 1.083 4.809 0.642 4.564C0.642 4.578 0.642 4.591 0.642 4.605C0.642 6.192 1.771 7.516 3.269 7.818C2.995 7.892 2.705 7.932 2.406 7.932C2.195 7.932 1.99 7.912 1.79 7.873C2.207 9.175 3.417 10.122 4.85 10.148C3.729 11.027 2.317 11.551 0.782 11.551C0.517 11.551 0.256 11.536 0 11.505C1.45 12.435 3.172 12.977 5.022 12.977C11.048 12.977 14.343 7.985 14.343 3.656C14.343 3.514 14.34 3.373 14.333 3.232C14.974 2.77 15.529 2.193 15.968 1.537C15.381 1.797 14.749 1.973 14.087 2.052C14.763 1.647 15.282 1.005 15.527 0.24Z" />
</svg>
