<svg viewBox="0 0 11 14">
<path d="M9.8 7.436C9.347 6.945 8.741 6.62201 7.987 6.46201V6.39801C8.511 6.17701 8.923 5.83499 9.22 5.36899C9.52 4.90399 9.669 4.37399 9.669 3.77699C9.669 3.26099 9.56 2.806 9.344 2.411C9.128 2.019 8.8 1.702 8.362 1.466C7.958 1.247 7.524 1.10499 7.061 1.03799C6.599 0.966994 5.918 0.934006 5.021 0.934006H0.700001V13.163H5.595C6.445 13.163 7.142 13.087 7.692 12.933C8.245 12.778 8.75 12.523 9.209 12.162C9.599 11.859 9.907 11.481 10.137 11.022C10.367 10.561 10.482 10.026 10.482 9.41699C10.482 8.58699 10.255 7.927 9.8 7.436ZM6.515 10.682C6.198 10.819 5.884 10.892 5.579 10.903C5.273 10.915 4.72 10.92 3.922 10.92H3.756V7.858H4.323C4.869 7.858 5.307 7.861 5.632 7.87C5.957 7.878 6.215 7.917 6.4 7.991C6.706 8.099 6.935 8.25901 7.09 8.47501C7.244 8.68801 7.319 8.98299 7.319 9.36099C7.319 9.65499 7.255 9.92001 7.126 10.152C6.997 10.385 6.795 10.561 6.515 10.682ZM5.901 5.577C5.677 5.68 5.458 5.73599 5.248 5.74799C5.037 5.75899 4.667 5.76401 4.143 5.76401H3.756V3.177H3.969C4.516 3.177 4.928 3.18 5.206 3.188C5.483 3.196 5.722 3.244 5.923 3.334C6.139 3.426 6.296 3.578 6.397 3.785C6.498 3.992 6.549 4.19501 6.549 4.39301C6.549 4.66001 6.501 4.89601 6.408 5.10001C6.316 5.30201 6.145 5.461 5.901 5.577Z"/>
</svg>
