<svg viewBox="0 0 24 26">
<path d="M21.171 25.928H2.758C1.511 25.928 0.5 24.917 0.5 23.67V2.259C0.5 1.011 1.511 0 2.758 0H21.171C22.418 0 23.43 1.011 23.43 2.259V23.67C23.43 24.917 22.418 25.928 21.171 25.928ZM21.498 1.931H2.431V6.03201H21.498V1.931ZM21.498 21.099V20.059V8.06799H2.431C2.431 10.115 2.431 17.195 2.431 19.925V21.099V23.997H21.498V21.099ZM11.957 9.48099C15.744 9.48099 18.824 12.561 18.824 16.348C18.824 20.134 15.744 23.214 11.957 23.214C8.171 23.214 5.091 20.134 5.091 16.348C5.091 12.561 8.171 9.48099 11.957 9.48099ZM11.957 21.272C14.673 21.272 16.883 19.063 16.883 16.348C16.883 13.632 14.673 11.423 11.957 11.423C9.242 11.423 7.033 13.632 7.033 16.348C7.033 19.063 9.242 21.272 11.957 21.272ZM13.116 18.965C13.572 18.965 14.013 18.894 14.432 18.768C13.777 19.412 12.885 19.814 11.912 19.814C9.942 19.814 8.298 18.17 8.298 16.2C8.298 15.793 8.371 15.402 8.5 15.034C8.87 17.239 10.819 18.965 13.116 18.965ZM11.627 2.979C12.872 2.979 12.872 4.91101 11.627 4.91101C10.381 4.91101 10.381 2.979 11.627 2.979ZM14.826 2.979C16.071 2.979 16.071 4.91101 14.826 4.91101C13.58 4.91101 13.58 2.979 14.826 2.979ZM18.084 2.979C19.33 2.979 19.33 4.91101 18.084 4.91101C16.839 4.91101 16.839 2.979 18.084 2.979Z" />
</svg>
