<svg viewBox="0 0 24 27">
  <path
    d="M22.826 18.078L19.538 16.18L21.923 15.784C22.393 15.706 22.71 15.262 22.632 14.792C22.554 14.322 22.119 14.001 21.64 14.082L17.186 14.822L14.089 13.034L17.186 11.246L21.64 11.986C21.688 11.994 21.735 11.997 21.782 11.997C22.196 11.997 22.562 11.698 22.632 11.276C22.71 10.806 22.393 10.362 21.923 10.284L19.538 9.888L22.826 7.98999C23.342 7.69199 23.519 7.033 23.221 6.517C22.923 6.002 22.265 5.82501 21.748 6.12201L18.46 8.01999L19.31 5.758C19.476 5.312 19.251 4.814 18.805 4.647C18.359 4.48 17.862 4.705 17.694 5.151L16.107 9.379L13.011 11.166V7.591L15.879 4.104C16.181 3.736 16.128 3.19201 15.76 2.88901C15.392 2.58601 14.848 2.641 14.546 3.008L13.011 4.87399V1.078C13.011 0.482003 12.528 0 11.933 0C11.337 0 10.855 0.482003 10.855 1.078V4.87399L9.32 3.008C9.018 2.641 8.474 2.58601 8.106 2.88901C7.738 3.19201 7.685 3.736 7.987 4.104L10.855 7.591V11.166L7.759 9.379L6.172 5.151C6.003 4.705 5.507 4.48 5.061 4.647C4.615 4.814 4.39 5.312 4.556 5.758L5.405 8.01999L2.118 6.12201C1.601 5.82501 0.943002 6.002 0.644002 6.517C0.347002 7.033 0.524002 7.69199 1.039 7.98999L4.328 9.888L1.943 10.284C1.473 10.362 1.156 10.806 1.234 11.276C1.304 11.698 1.67 11.997 2.084 11.997C2.13 11.997 2.178 11.994 2.226 11.986L6.68 11.246L9.776 13.034L6.974 14.652L2.262 13.87C1.674 13.769 1.119 14.169 1.021 14.757C0.923002 15.344 1.321 15.899 1.908 15.997L4.034 16.349L1.039 18.078C0.524002 18.376 0.347002 19.035 0.644002 19.551C0.845002 19.897 1.207 20.09 1.579 20.09C1.762 20.09 1.948 20.044 2.118 19.946L5.405 18.047L4.556 20.31C4.39 20.756 4.615 21.253 5.061 21.421C5.161 21.458 5.263 21.476 5.364 21.476C5.713 21.476 6.041 21.263 6.172 20.916L7.759 16.689L10.855 14.901V18.477L7.987 21.964C7.685 22.332 7.738 22.876 8.106 23.179C8.266 23.31 8.461 23.375 8.653 23.375C8.902 23.375 9.149 23.267 9.32 23.06L10.855 21.194V24.99C10.855 25.586 11.337 26.068 11.933 26.068C12.528 26.068 13.011 25.586 13.011 24.99V21.194L14.546 23.06C14.717 23.267 14.964 23.375 15.213 23.375C15.405 23.375 15.6 23.31 15.76 23.179C16.128 22.876 16.181 22.332 15.879 21.964L13.011 18.477V14.901L16.107 16.689L17.694 20.916C17.824 21.263 18.153 21.476 18.502 21.476C18.603 21.476 18.705 21.458 18.805 21.421C19.251 21.253 19.476 20.756 19.31 20.31L18.46 18.047L21.748 19.946C21.918 20.044 22.104 20.09 22.287 20.09C22.659 20.09 23.021 19.897 23.221 19.551C23.519 19.035 23.342 18.376 22.826 18.078Z" />
</svg>
