<svg viewBox="0 0 15 15" >
<path d="M14.325 1.59399C14.325 0.726994 13.623 0.0249939 12.756 0.0249939H1.668C0.800999 0.0249939 0.0989995 0.726994 0.0989995 1.59399L0.0979996 12.667C0.0979996 13.534 0.800999 14.236 1.667 14.236H12.756C13.623 14.236 14.325 13.534 14.325 12.667V1.59399ZM12.237 4.401H10.56C10.257 4.401 10.01 4.155 10.01 3.851V2.174C10.01 1.87 10.257 1.62399 10.56 1.62399H12.237C12.541 1.62399 12.787 1.87 12.787 2.174V3.851C12.787 4.155 12.541 4.401 12.237 4.401ZM7.234 9.713C5.824 9.713 4.682 8.57 4.682 7.16C4.682 5.749 5.824 4.60699 7.234 4.60699C8.645 4.60699 9.992 5.636 9.992 7.159C9.992 8.683 8.645 9.713 7.234 9.713ZM7.234 11.59C9.678 11.59 11.66 9.608 11.66 7.164C11.66 6.78 11.611 6.40599 11.519 6.05099C12.313 6.05199 12.76 6.05 12.76 6.05V12.154C12.76 12.457 12.514 12.704 12.21 12.704H2.258C1.954 12.704 1.708 12.457 1.708 12.154V6.05C1.708 6.05 1.959 6.05099 2.949 6.05099C2.856 6.40599 2.807 6.78 2.807 7.164C2.807 9.608 4.789 11.59 7.234 11.59Z"/>
</svg>
