<svg viewBox="0 0 28 28">
<path  d="M5.00023 2C3.34337 2 2.00023 3.34315 2.00023 5V23C2.00023 24.6569 3.34337 26 5.00023 26H23.0002C24.6571 26 26.0002 24.6569 26.0002 23V5C26.0002 3.34315 24.6571 2 23.0002 2H5.00023ZM0.000228882 5C0.000228882 2.23858 2.23881 0 5.00023 0H23.0002C25.7617 0 28.0002 2.23858 28.0002 5V23C28.0002 25.7614 25.7617 28 23.0002 28H5.00023C2.23881 28 0.000228882 25.7614 0.000228882 23V5Z"/>
<path  d="M13.0672 15.317C14.7302 15.317 16.0392 14.919 16.9922 14.122C17.9452 13.324 18.4222 12.26 18.4222 10.928C18.4222 10.028 18.2022 9.223 17.7612 8.514C17.3202 7.804 16.6982 7.257 15.8952 6.873C15.0912 6.488 14.1682 6.296 13.1242 6.296H7.67523V19.95H10.9672V15.317H13.0672ZM10.9672 8.837H13.1612C13.7552 8.844 14.2242 9.037 14.5682 9.419C14.9122 9.8 15.0842 10.31 15.0842 10.947C15.0842 11.529 14.9162 11.979 14.5822 12.298C14.2472 12.616 13.7612 12.776 13.1242 12.776H10.9672V8.837Z"  />
</svg>
