<svg viewBox="0 0 29 22">
  <path
    d="M28.19 5.95C24.492 2.114 19.532 0 14.221 0C8.944 0 4.006 2.088 0.315 5.879C-0.113 6.32 -0.105 7.02399 0.338 7.45399C0.778 7.88299 1.484 7.874 1.914 7.433C5.181 4.076 9.552 2.228 14.222 2.228C18.921 2.228 23.312 4.1 26.587 7.495C26.807 7.722 27.097 7.838 27.389 7.838C27.667 7.838 27.946 7.733 28.163 7.526C28.605 7.099 28.616 6.393 28.19 5.95ZM14.221 5.688C10.461 5.688 6.949 7.18601 4.334 9.90401C3.907 10.348 3.922 11.053 4.364 11.48C4.809 11.907 5.513 11.894 5.94 11.45C8.131 9.172 11.072 7.91499 14.221 7.91499C17.4 7.91499 20.361 9.193 22.557 11.511C22.775 11.742 23.07 11.86 23.367 11.86C23.642 11.86 23.917 11.758 24.133 11.555C24.579 11.131 24.598 10.426 24.175 9.98C21.552 7.212 18.017 5.688 14.221 5.688ZM14.221 11.351C11.997 11.351 9.848 12.288 8.327 13.923C7.908 14.372 7.932 15.078 8.382 15.497C8.831 15.918 9.538 15.893 9.957 15.442C11.075 14.241 12.59 13.578 14.221 13.578C15.857 13.578 17.428 14.278 18.535 15.499C18.753 15.742 19.058 15.863 19.36 15.863C19.626 15.863 19.895 15.769 20.109 15.575C20.565 15.16 20.598 14.457 20.185 14.001C18.655 12.317 16.482 11.351 14.221 11.351ZM14.221 17.341C13.077 17.341 12.149 18.268 12.149 19.412C12.149 20.555 13.077 21.483 14.221 21.483C15.366 21.483 16.292 20.557 16.292 19.412C16.292 18.266 15.366 17.341 14.221 17.341Z" />
</svg>
