<svg xmlns="http://www.w3.org/2000/svg" xmlns:xlink="http://www.w3.org/1999/xlink"><defs><symbol viewBox="0 0 24 27" id="conditioner-icon">
  <path d="M22.826 18.078L19.538 16.18L21.923 15.784C22.393 15.706 22.71 15.262 22.632 14.792C22.554 14.322 22.119 14.001 21.64 14.082L17.186 14.822L14.089 13.034L17.186 11.246L21.64 11.986C21.688 11.994 21.735 11.997 21.782 11.997C22.196 11.997 22.562 11.698 22.632 11.276C22.71 10.806 22.393 10.362 21.923 10.284L19.538 9.888L22.826 7.98999C23.342 7.69199 23.519 7.033 23.221 6.517C22.923 6.002 22.265 5.82501 21.748 6.12201L18.46 8.01999L19.31 5.758C19.476 5.312 19.251 4.814 18.805 4.647C18.359 4.48 17.862 4.705 17.694 5.151L16.107 9.379L13.011 11.166V7.591L15.879 4.104C16.181 3.736 16.128 3.19201 15.76 2.88901C15.392 2.58601 14.848 2.641 14.546 3.008L13.011 4.87399V1.078C13.011 0.482003 12.528 0 11.933 0C11.337 0 10.855 0.482003 10.855 1.078V4.87399L9.32 3.008C9.018 2.641 8.474 2.58601 8.106 2.88901C7.738 3.19201 7.685 3.736 7.987 4.104L10.855 7.591V11.166L7.759 9.379L6.172 5.151C6.003 4.705 5.507 4.48 5.061 4.647C4.615 4.814 4.39 5.312 4.556 5.758L5.405 8.01999L2.118 6.12201C1.601 5.82501 0.943002 6.002 0.644002 6.517C0.347002 7.033 0.524002 7.69199 1.039 7.98999L4.328 9.888L1.943 10.284C1.473 10.362 1.156 10.806 1.234 11.276C1.304 11.698 1.67 11.997 2.084 11.997C2.13 11.997 2.178 11.994 2.226 11.986L6.68 11.246L9.776 13.034L6.974 14.652L2.262 13.87C1.674 13.769 1.119 14.169 1.021 14.757C0.923002 15.344 1.321 15.899 1.908 15.997L4.034 16.349L1.039 18.078C0.524002 18.376 0.347002 19.035 0.644002 19.551C0.845002 19.897 1.207 20.09 1.579 20.09C1.762 20.09 1.948 20.044 2.118 19.946L5.405 18.047L4.556 20.31C4.39 20.756 4.615 21.253 5.061 21.421C5.161 21.458 5.263 21.476 5.364 21.476C5.713 21.476 6.041 21.263 6.172 20.916L7.759 16.689L10.855 14.901V18.477L7.987 21.964C7.685 22.332 7.738 22.876 8.106 23.179C8.266 23.31 8.461 23.375 8.653 23.375C8.902 23.375 9.149 23.267 9.32 23.06L10.855 21.194V24.99C10.855 25.586 11.337 26.068 11.933 26.068C12.528 26.068 13.011 25.586 13.011 24.99V21.194L14.546 23.06C14.717 23.267 14.964 23.375 15.213 23.375C15.405 23.375 15.6 23.31 15.76 23.179C16.128 22.876 16.181 22.332 15.879 21.964L13.011 18.477V14.901L16.107 16.689L17.694 20.916C17.824 21.263 18.153 21.476 18.502 21.476C18.603 21.476 18.705 21.458 18.805 21.421C19.251 21.253 19.476 20.756 19.31 20.31L18.46 18.047L21.748 19.946C21.918 20.044 22.104 20.09 22.287 20.09C22.659 20.09 23.021 19.897 23.221 19.551C23.519 19.035 23.342 18.376 22.826 18.078Z" />
</symbol><symbol viewBox="0 0 34 23" id="dish-icon">
  <path d="M32.266 11.282C32.266 14.103 32.266 20.94 32.266 20.94C32.266 21.57 31.824 22.08 31.195 22.08C30.566 22.08 30.056 21.57 30.056 20.94C30.056 20.94 30.056 1.94999 30.056 0.0329895C32.626 -0.11201 35.594 9.32901 32.266 11.282ZM16.962 22.717C10.689 22.717 5.605 17.633 5.605 11.359C5.605 5.08601 10.689 0 16.962 0C23.234 0 28.321 5.08601 28.321 11.359C28.321 17.633 23.234 22.717 16.962 22.717ZM16.962 2.53101C12.088 2.53101 8.136 6.48301 8.136 11.359C8.136 16.233 12.088 20.185 16.962 20.185C21.838 20.185 25.788 16.233 25.788 11.359C25.788 6.48301 21.838 2.53101 16.962 2.53101ZM16.961 17.142C13.767 17.142 11.179 14.552 11.179 11.361C11.179 8.16599 13.768 5.57901 16.961 5.57901C20.155 5.57901 22.743 8.16599 22.743 11.361C22.743 14.552 20.155 17.142 16.961 17.142ZM3.702 20.939C3.702 21.569 3.26 22.078 2.631 22.078C2.002 22.078 1.491 21.569 1.491 20.939V8.11401C0.608 7.57101 0 6.43699 0 5.11899V0.0509949L1.33 5.11899L1.806 0.0509949L2.658 5.11899L3.496 0.0100098L3.918 5.11899L5.246 0.0509949V5.11899C5.246 6.46199 4.612 7.617 3.702 8.146V20.939Z" />
</symbol><symbol viewBox="0 0 26 26" id="elevator-icon">
  <path d="M24.03 25.987H1.912C0.856 25.987 0 25.131 0 24.074V1.91299C0 0.855994 0.856 0 1.912 0H24.03C25.086 0 25.942 0.855994 25.942 1.91299V24.074C25.942 25.131 25.086 25.987 24.03 25.987ZM24.03 2.19199C24.03 2.03799 23.905 1.91299 23.751 1.91299H2.191C2.037 1.91299 1.912 2.03799 1.912 2.19199V23.795C1.912 23.949 2.037 24.074 2.191 24.074H23.751C23.905 24.074 24.03 23.949 24.03 23.795V2.19199ZM18.293 20.706C18.188 20.706 18.09 20.65 18.037 20.559L14.507 14.457C14.455 14.367 14.455 14.257 14.507 14.167C14.559 14.078 14.657 14.022 14.763 14.022H21.823C21.927 14.022 22.025 14.078 22.078 14.167C22.131 14.257 22.131 14.367 22.078 14.457L18.549 20.559C18.495 20.65 18.397 20.706 18.293 20.706ZM14.763 12.09C14.658 12.09 14.56 12.034 14.507 11.946C14.455 11.856 14.455 11.745 14.507 11.655L18.037 5.55399C18.09 5.46199 18.188 5.40601 18.293 5.40601C18.397 5.40601 18.495 5.46199 18.549 5.55399L22.078 11.655C22.131 11.745 22.131 11.856 22.078 11.946C22.026 12.034 21.928 12.09 21.823 12.09H14.763ZM10.643 16.403L10.248 21.311C10.188 22.049 9.572 22.618 8.831 22.618H7.687C6.948 22.618 6.332 22.052 6.271 21.315L5.862 16.403C4.806 16.403 3.95 15.545 3.95 14.49V11.144C3.95 10.087 4.806 9.23099 5.862 9.23099H6.579L8.252 12.291L9.926 9.23099H10.643C11.699 9.23099 12.555 10.087 12.555 11.144V14.49C12.555 15.545 11.699 16.403 10.643 16.403ZM8.252 8.27499C6.932 8.27499 5.862 7.205 5.862 5.884C5.862 4.564 6.932 3.49399 8.252 3.49399C9.573 3.49399 10.643 4.564 10.643 5.884C10.643 7.205 9.573 8.27499 8.252 8.27499Z" />
</symbol><symbol viewBox="0 0 9 18" id="fb-icon">
<path d="M8.631 0.459H6.12C3.157 0.459 2.448 1.849 2.448 4.364V6.342H0.749001V9.12H2.448V17.477H5.811V9.12H8.277L8.534 6.342H5.811L5.815 4.672C5.815 3.868 5.891 3.543 7.045 3.543H8.631V0.459Z" />
</symbol><symbol viewBox="0 0 15 15" id="inst-icon">
<path d="M14.325 1.59399C14.325 0.726994 13.623 0.0249939 12.756 0.0249939H1.668C0.800999 0.0249939 0.0989995 0.726994 0.0989995 1.59399L0.0979996 12.667C0.0979996 13.534 0.800999 14.236 1.667 14.236H12.756C13.623 14.236 14.325 13.534 14.325 12.667V1.59399ZM12.237 4.401H10.56C10.257 4.401 10.01 4.155 10.01 3.851V2.174C10.01 1.87 10.257 1.62399 10.56 1.62399H12.237C12.541 1.62399 12.787 1.87 12.787 2.174V3.851C12.787 4.155 12.541 4.401 12.237 4.401ZM7.234 9.713C5.824 9.713 4.682 8.57 4.682 7.16C4.682 5.749 5.824 4.60699 7.234 4.60699C8.645 4.60699 9.992 5.636 9.992 7.159C9.992 8.683 8.645 9.713 7.234 9.713ZM7.234 11.59C9.678 11.59 11.66 9.608 11.66 7.164C11.66 6.78 11.611 6.40599 11.519 6.05099C12.313 6.05199 12.76 6.05 12.76 6.05V12.154C12.76 12.457 12.514 12.704 12.21 12.704H2.258C1.954 12.704 1.708 12.457 1.708 12.154V6.05C1.708 6.05 1.959 6.05099 2.949 6.05099C2.856 6.40599 2.807 6.78 2.807 7.164C2.807 9.608 4.789 11.59 7.234 11.59Z" />
</symbol><symbol viewBox="0 0 28 28" id="parking-icon">
<path d="M5.00023 2C3.34337 2 2.00023 3.34315 2.00023 5V23C2.00023 24.6569 3.34337 26 5.00023 26H23.0002C24.6571 26 26.0002 24.6569 26.0002 23V5C26.0002 3.34315 24.6571 2 23.0002 2H5.00023ZM0.000228882 5C0.000228882 2.23858 2.23881 0 5.00023 0H23.0002C25.7617 0 28.0002 2.23858 28.0002 5V23C28.0002 25.7614 25.7617 28 23.0002 28H5.00023C2.23881 28 0.000228882 25.7614 0.000228882 23V5Z" />
<path d="M13.0672 15.317C14.7302 15.317 16.0392 14.919 16.9922 14.122C17.9452 13.324 18.4222 12.26 18.4222 10.928C18.4222 10.028 18.2022 9.223 17.7612 8.514C17.3202 7.804 16.6982 7.257 15.8952 6.873C15.0912 6.488 14.1682 6.296 13.1242 6.296H7.67523V19.95H10.9672V15.317H13.0672ZM10.9672 8.837H13.1612C13.7552 8.844 14.2242 9.037 14.5682 9.419C14.9122 9.8 15.0842 10.31 15.0842 10.947C15.0842 11.529 14.9162 11.979 14.5822 12.298C14.2472 12.616 13.7612 12.776 13.1242 12.776H10.9672V8.837Z" />
</symbol><symbol viewBox="0 0 16 13" id="tw-icon">
<path d="M15.527 0.24C14.894 0.616 14.193 0.888 13.447 1.035C12.849 0.398 11.998 0 11.055 0C9.246 0 7.779 1.467 7.779 3.276C7.779 3.533 7.808 3.783 7.864 4.023C5.142 3.886 2.728 2.582 1.112 0.599999C0.83 1.084 0.668 1.647 0.668 2.247C0.668 3.383 1.247 4.386 2.126 4.974C1.589 4.957 1.083 4.809 0.642 4.564C0.642 4.578 0.642 4.591 0.642 4.605C0.642 6.192 1.771 7.516 3.269 7.818C2.995 7.892 2.705 7.932 2.406 7.932C2.195 7.932 1.99 7.912 1.79 7.873C2.207 9.175 3.417 10.122 4.85 10.148C3.729 11.027 2.317 11.551 0.782 11.551C0.517 11.551 0.256 11.536 0 11.505C1.45 12.435 3.172 12.977 5.022 12.977C11.048 12.977 14.343 7.985 14.343 3.656C14.343 3.514 14.34 3.373 14.333 3.232C14.974 2.77 15.529 2.193 15.968 1.537C15.381 1.797 14.749 1.973 14.087 2.052C14.763 1.647 15.282 1.005 15.527 0.24Z" />
</symbol><symbol viewBox="0 0 11 14" id="vk-icon">
<path d="M9.8 7.436C9.347 6.945 8.741 6.62201 7.987 6.46201V6.39801C8.511 6.17701 8.923 5.83499 9.22 5.36899C9.52 4.90399 9.669 4.37399 9.669 3.77699C9.669 3.26099 9.56 2.806 9.344 2.411C9.128 2.019 8.8 1.702 8.362 1.466C7.958 1.247 7.524 1.10499 7.061 1.03799C6.599 0.966994 5.918 0.934006 5.021 0.934006H0.700001V13.163H5.595C6.445 13.163 7.142 13.087 7.692 12.933C8.245 12.778 8.75 12.523 9.209 12.162C9.599 11.859 9.907 11.481 10.137 11.022C10.367 10.561 10.482 10.026 10.482 9.41699C10.482 8.58699 10.255 7.927 9.8 7.436ZM6.515 10.682C6.198 10.819 5.884 10.892 5.579 10.903C5.273 10.915 4.72 10.92 3.922 10.92H3.756V7.858H4.323C4.869 7.858 5.307 7.861 5.632 7.87C5.957 7.878 6.215 7.917 6.4 7.991C6.706 8.099 6.935 8.25901 7.09 8.47501C7.244 8.68801 7.319 8.98299 7.319 9.36099C7.319 9.65499 7.255 9.92001 7.126 10.152C6.997 10.385 6.795 10.561 6.515 10.682ZM5.901 5.577C5.677 5.68 5.458 5.73599 5.248 5.74799C5.037 5.75899 4.667 5.76401 4.143 5.76401H3.756V3.177H3.969C4.516 3.177 4.928 3.18 5.206 3.188C5.483 3.196 5.722 3.244 5.923 3.334C6.139 3.426 6.296 3.578 6.397 3.785C6.498 3.992 6.549 4.19501 6.549 4.39301C6.549 4.66001 6.501 4.89601 6.408 5.10001C6.316 5.30201 6.145 5.461 5.901 5.577Z" />
</symbol><symbol viewBox="0 0 24 26" id="washing-icon">
<path d="M21.171 25.928H2.758C1.511 25.928 0.5 24.917 0.5 23.67V2.259C0.5 1.011 1.511 0 2.758 0H21.171C22.418 0 23.43 1.011 23.43 2.259V23.67C23.43 24.917 22.418 25.928 21.171 25.928ZM21.498 1.931H2.431V6.03201H21.498V1.931ZM21.498 21.099V20.059V8.06799H2.431C2.431 10.115 2.431 17.195 2.431 19.925V21.099V23.997H21.498V21.099ZM11.957 9.48099C15.744 9.48099 18.824 12.561 18.824 16.348C18.824 20.134 15.744 23.214 11.957 23.214C8.171 23.214 5.091 20.134 5.091 16.348C5.091 12.561 8.171 9.48099 11.957 9.48099ZM11.957 21.272C14.673 21.272 16.883 19.063 16.883 16.348C16.883 13.632 14.673 11.423 11.957 11.423C9.242 11.423 7.033 13.632 7.033 16.348C7.033 19.063 9.242 21.272 11.957 21.272ZM13.116 18.965C13.572 18.965 14.013 18.894 14.432 18.768C13.777 19.412 12.885 19.814 11.912 19.814C9.942 19.814 8.298 18.17 8.298 16.2C8.298 15.793 8.371 15.402 8.5 15.034C8.87 17.239 10.819 18.965 13.116 18.965ZM11.627 2.979C12.872 2.979 12.872 4.91101 11.627 4.91101C10.381 4.91101 10.381 2.979 11.627 2.979ZM14.826 2.979C16.071 2.979 16.071 4.91101 14.826 4.91101C13.58 4.91101 13.58 2.979 14.826 2.979ZM18.084 2.979C19.33 2.979 19.33 4.91101 18.084 4.91101C16.839 4.91101 16.839 2.979 18.084 2.979Z" />
</symbol><symbol viewBox="0 0 29 22" id="wifi-icon">
  <path d="M28.19 5.95C24.492 2.114 19.532 0 14.221 0C8.944 0 4.006 2.088 0.315 5.879C-0.113 6.32 -0.105 7.02399 0.338 7.45399C0.778 7.88299 1.484 7.874 1.914 7.433C5.181 4.076 9.552 2.228 14.222 2.228C18.921 2.228 23.312 4.1 26.587 7.495C26.807 7.722 27.097 7.838 27.389 7.838C27.667 7.838 27.946 7.733 28.163 7.526C28.605 7.099 28.616 6.393 28.19 5.95ZM14.221 5.688C10.461 5.688 6.949 7.18601 4.334 9.90401C3.907 10.348 3.922 11.053 4.364 11.48C4.809 11.907 5.513 11.894 5.94 11.45C8.131 9.172 11.072 7.91499 14.221 7.91499C17.4 7.91499 20.361 9.193 22.557 11.511C22.775 11.742 23.07 11.86 23.367 11.86C23.642 11.86 23.917 11.758 24.133 11.555C24.579 11.131 24.598 10.426 24.175 9.98C21.552 7.212 18.017 5.688 14.221 5.688ZM14.221 11.351C11.997 11.351 9.848 12.288 8.327 13.923C7.908 14.372 7.932 15.078 8.382 15.497C8.831 15.918 9.538 15.893 9.957 15.442C11.075 14.241 12.59 13.578 14.221 13.578C15.857 13.578 17.428 14.278 18.535 15.499C18.753 15.742 19.058 15.863 19.36 15.863C19.626 15.863 19.895 15.769 20.109 15.575C20.565 15.16 20.598 14.457 20.185 14.001C18.655 12.317 16.482 11.351 14.221 11.351ZM14.221 17.341C13.077 17.341 12.149 18.268 12.149 19.412C12.149 20.555 13.077 21.483 14.221 21.483C15.366 21.483 16.292 20.557 16.292 19.412C16.292 18.266 15.366 17.341 14.221 17.341Z" />
</symbol></defs></svg>